<?xml version="1.0" encoding="UTF-8"?>
<svg width="106px" height="101px" viewBox="0 0 106 101" version="1.1" xmlns="http://www.w3.org/2000/svg" xmlns:xlink="http://www.w3.org/1999/xlink">
    <!-- Generator: Sketch 41.2 (35397) - http://www.bohemiancoding.com/sketch -->
    <title>hands</title>
    <desc>Created with Sketch.</desc>
    <defs>
        <polygon id="path-1" points="0.0515941777 30.6088154 33.3914535 30.6088154 33.3914535 0.13854368 0.0515941777 0.13854368"></polygon>
    </defs>
    <g id="Page-1" stroke="none" stroke-width="1" fill="none" fill-rule="evenodd">
        <g id="Desktop:-We're-Hiring-banner" transform="translate(-542.000000, -601.000000)">
            <g id="hands" transform="translate(542.000000, 601.000000)">
                <g id="Group-3" transform="translate(12.163657, 70.111255)">
                    <mask id="mask-2" fill="white">
                        <use xlink:href="#path-1"></use>
                    </mask>
                    <g id="Clip-2"></g>
                    <path d="M30.5754221,6.75399732 L32.4487701,9.30891655 C33.0618763,10.1449463 33.3914535,11.146715 33.3914535,12.1742966 L33.3914535,15.2911768 C33.3914535,23.7159358 26.3152461,30.6088436 17.6665965,30.6088436 L15.7765959,30.6088436 C7.12780153,30.6088436 0.0515941777,23.7159358 0.0515941777,15.2911768 L0.0515941777,8.53875926 C0.0515941777,5.81612629 2.31750968,0.13854368 5.11254425,0.13854368 L25.5555968,0.13854368 C27.0793844,0.13854368 28.522081,4.27778648 29.4831547,5.42963711 L30.3847134,6.51025524 C30.4508894,6.58952784 30.514459,6.67091625 30.5754221,6.75399732" id="Fill-1" fill="#C352FF" mask="url(#mask-2)"></path>
                </g>
                <path d="M46.2267179,62.2960625 C45.232339,62.2960625 44.3921778,63.1144604 44.3921778,64.0832224 L44.3921778,77.1255399 C44.3921778,78.0941608 45.232339,78.9125587 46.2267179,78.9125587 C47.2212417,78.9125587 48.0614028,78.0941608 48.0614028,77.1255399 L48.0614028,73.9278355 C48.0614028,72.9280416 48.5172503,72.0319227 49.2375126,71.4260938 C48.5172503,70.8201239 48.0614028,69.9241461 48.0614028,68.9243521 L48.0614028,64.0832224 C48.0614028,63.1144604 47.2212417,62.2960625 46.2267179,62.2960625 M46.2267179,85.5212417 C41.4743482,85.5212417 37.6077534,81.7549469 37.6077534,77.1255399 L37.6077534,64.0832224 C37.6077534,59.4538154 41.4743482,55.6875206 46.2267179,55.6875206 C50.9792324,55.6875206 54.8456824,59.4538154 54.8456824,64.0832224 L54.8456824,68.9243521 C54.8456824,69.9241461 54.3898349,70.8201239 53.6695726,71.4260938 C54.3898349,72.0319227 54.8456824,72.9280416 54.8456824,73.9278355 L54.8456824,77.1255399 C54.8456824,81.7549469 50.9792324,85.5212417 46.2267179,85.5212417" id="Fill-4" fill="#C352FF"></path>
                <path d="M32.4712004,79.2896113 C30.5977077,79.2896113 29.0789882,77.8102323 29.0789882,75.9852698 L29.0789882,36.334018 C29.0789882,34.5090555 30.5977077,33.0296765 32.4712004,33.0296765 C34.3446932,33.0296765 35.8634126,34.5090555 35.8634126,36.334018 L35.8634126,75.9852698 C35.8634126,77.8102323 34.3446932,79.2896113 32.4712004,79.2896113" id="Fill-6" fill="#C352FF"></path>
                <path d="M24.1020398,79.2896113 C22.2285471,79.2896113 20.7098276,77.8102323 20.7098276,75.9852698 L20.7098276,39.1662502 C20.7098276,37.3412878 22.2285471,35.8620498 24.1020398,35.8620498 C25.9755326,35.8620498 27.494252,37.3412878 27.494252,39.1662502 L27.494252,75.9852698 C27.494252,77.8102323 25.9755326,79.2896113 24.1020398,79.2896113" id="Fill-8" fill="#C352FF"></path>
                <path d="M15.7043091,83.8731898 C13.8308163,83.8731898 12.3120969,82.3938107 12.3120969,80.5688482 L12.3120969,44.2191168 C12.3120969,42.3942954 13.8308163,40.9147753 15.7043091,40.9147753 C17.5778018,40.9147753 19.0965213,42.3942954 19.0965213,44.2191168 L19.0965213,80.5688482 C19.0965213,82.3938107 17.5778018,83.8731898 15.7043091,83.8731898" id="Fill-10" fill="#C352FF"></path>
                <path d="M52.1030964,76.7259608 C53.1341111,76.6053593 53.8901403,75.7169984 53.8901403,74.7054969 L53.8901403,73.635881 C53.8901403,73.1084785 53.451235,72.6809424 52.9098075,72.6809424 L50.7998474,72.6809424 C50.2584199,72.6809424 49.8195146,73.1084785 49.8195146,73.635881 L49.8195146,74.7579692 C49.8195146,75.9280158 50.8741326,76.8698364 52.1030964,76.7259608" id="Fill-12" fill="#FFFFFF"></path>
                <path d="M51.606573,65.1211292 C50.5755583,65.2417308 49.8195291,66.1300917 49.8195291,67.1415932 L49.8195291,68.211209 C49.8195291,68.7386116 50.2584344,69.1661477 50.7998619,69.1661477 L52.909822,69.1661477 C53.4512495,69.1661477 53.8901548,68.7386116 53.8901548,68.211209 L53.8901548,67.0891209 C53.8901548,65.9190743 52.8355368,64.9772537 51.606573,65.1211292" id="Fill-14" fill="#FFFFFF"></path>
                <path d="M48.2565426,85.3134544 C46.5091754,85.8240715 45.8101996,86.5049413 45.2860039,88.5474098 C44.9251487,89.9534405 42.4027828,90.6750751 42.0533673,89.7388967 C41.7039517,88.8027183 40.4807802,82.9304806 41.1796113,82.4198635 C41.8785871,81.9092464 45.5481017,81.0581238 46.1597599,81.2283765 C46.7712733,81.3986292 49.4797142,82.1645549 49.4797142,82.1645549 L49.5670318,82.675172" id="Fill-16" fill="#C352FF"></path>
                <path d="M36.7326218,69.8294139 L36.7326218,69.8294139 C37.185718,69.8294139 37.5648186,69.5068224 37.6405519,69.0857748 C37.6496746,69.1359902 37.654598,69.1876162 37.654598,69.2402295 L37.654598,70.6298979 C37.654598,71.1238706 37.2397304,71.5279916 36.7326218,71.5279916 L36.7326218,71.5279916 C36.2255131,71.5279916 35.8106455,71.1238706 35.8106455,70.6298979 L35.8106455,69.2402295 C35.8106455,69.1876162 35.8155689,69.1359902 35.8246917,69.0857748 C35.9004249,69.5068224 36.2795255,69.8294139 36.7326218,69.8294139" id="Fill-18" fill="#C352FF"></path>
                <path d="M28.2796912,69.7501413 L28.2796912,69.7501413 C28.6844224,69.7501413 29.0231223,69.461826 29.0908913,69.0857748 C29.0990004,69.1306302 29.1033445,69.176755 29.1033445,69.2237261 L29.1033445,70.4652873 C29.1033445,70.9066467 28.7327874,71.2677461 28.2796912,71.2677461 L28.2796912,71.2677461 C27.826595,71.2677461 27.4560379,70.9066467 27.4560379,70.4652873 L27.4560379,69.2237261 C27.4560379,69.176755 27.460382,69.1306302 27.4684911,69.0857748 C27.5362601,69.461826 27.87496,69.7501413 28.2796912,69.7501413" id="Fill-20" fill="#C352FF"></path>
                <path d="M19.8922996,69.7501413 L19.8922996,69.7501413 C20.2970308,69.7501413 20.6357307,69.461826 20.7034996,69.0857748 C20.7116087,69.1306302 20.7159529,69.176755 20.7159529,69.2237261 L20.7159529,70.4652873 C20.7159529,70.9066467 20.3453958,71.2677461 19.8922996,71.2677461 L19.8922996,71.2677461 C19.4392033,71.2677461 19.0686462,70.9066467 19.0686462,70.4652873 L19.0686462,69.2237261 C19.0686462,69.176755 19.0729904,69.1306302 19.0810995,69.0857748 C19.1488684,69.461826 19.4875684,69.7501413 19.8922996,69.7501413" id="Fill-22" fill="#C352FF"></path>
                <path d="M78.9431319,37.4781247 C77.0696391,37.4781247 75.5509197,35.9987456 75.5509197,34.1739242 L75.5509197,20.3016424 C75.5509197,18.4766799 77.0696391,16.9974419 78.9431319,16.9974419 C80.8166247,16.9974419 82.3353441,18.4766799 82.3353441,20.3016424 L82.3353441,34.1739242 C82.3353441,35.9987456 80.8166247,37.4781247 78.9431319,37.4781247" id="Fill-24" fill="#C352FF"></path>
                <path d="M84.8841225,42.244016 C83.0106298,42.244016 81.4919103,40.7646369 81.4919103,38.9398155 L81.4919103,25.0675337 C81.4919103,23.2425712 83.0106298,21.7633332 84.8841225,21.7633332 C86.7576153,21.7633332 88.2763347,23.2425712 88.2763347,25.0675337 L88.2763347,38.9398155 C88.2763347,40.7646369 86.7576153,42.244016 84.8841225,42.244016" id="Fill-26" fill="#C352FF"></path>
                <path d="M88.4225158,55.8608624 C86.5490231,55.8608624 85.0303036,54.3814833 85.0303036,52.5566619 L85.0303036,32.8547407 C85.0303036,31.0297783 86.5490231,29.5505403 88.4225158,29.5505403 C90.2960086,29.5505403 91.814728,31.0297783 91.814728,32.8547407 L91.814728,52.5566619 C91.814728,54.3814833 90.2960086,55.8608624 88.4225158,55.8608624" id="Fill-28" fill="#C352FF"></path>
                <path d="M62.7152643,59.0453499 L63.2451074,62.1423414 C63.4185843,63.1558176 63.9128053,64.0911497 64.6585533,64.8177211 L66.921283,67.0216969 C73.0368511,72.9788494 83.0440653,72.9788494 89.1596334,67.0216969 L90.4960428,65.7199054 C96.6116109,59.7627528 96.6116109,50.014762 90.4960428,44.0576095 L85.5943787,39.2829164 C83.6180741,37.3576642 80.4136746,37.3576642 78.4372251,39.2829164 L63.9817326,53.3638178 C62.9042354,54.4134039 62.3696137,55.8800881 62.5262932,57.356505 L62.6732707,58.7416597 C62.6839863,58.8432189 62.6980324,58.944496 62.7152643,59.0453499" id="Fill-30" fill="#C352FF"></path>
                <path d="M70.923966,33.1635653 L70.917305,33.1635653 C69.043957,33.160039 67.5281337,31.6778388 67.531609,29.8528764 L67.5843182,3.2978248 C67.5879383,1.47511921 69.1059337,-2.82108899e-05 70.9762408,-2.82108899e-05 L70.9829018,-2.82108899e-05 C72.8563946,0.00349815033 74.3720731,1.4856983 74.3685978,3.3105197 L74.3160334,29.8657123 C74.3122685,31.6884179 72.794273,33.1635653 70.923966,33.1635653" id="Fill-32" fill="#C352FF"></path>
                <path d="M67.3234946,65.988473 C66.4296107,65.988473 65.5371747,65.646416 64.8709249,64.9672388 C64.7672442,64.8615891 54.4702743,54.3719339 51.6991326,51.9542607 C49.0334093,49.628696 48.059448,49.2147012 46.6113936,48.8761705 C44.7897412,48.4501861 43.6673542,46.6665526 44.1045218,44.8919465 C44.5418342,43.1171995 46.3737678,42.0240275 48.1945514,42.4500119 C51.0687946,43.1219953 53.0201927,44.235197 56.2253162,47.0314604 C59.1912212,49.6189632 69.3445441,59.9622038 69.7753403,60.4011653 C71.0697561,61.7204475 71.0211015,63.8120029 69.666881,65.0728886 C69.009754,65.6846418 68.1659727,65.988473 67.3234946,65.988473" id="Fill-34" fill="#C352FF"></path>
                <path d="M85.4083617,61.5778274 C81.0398712,57.8332549 74.2251825,63.6202958 70.2062523,60.4713963 C66.1873222,57.3224968 61.5567339,52.3013816 61.5567339,52.3013816 L60.1587822,57.4076937 L65.3135662,62.939567 C65.3135662,62.939567 68.9830808,68.4714404 72.0409372,68.3862435 C75.0987937,68.3011877 78.9430885,69.3224219 80.7777734,68.9820575 C82.6126031,68.6415521 86.3694354,67.0246449 86.3694354,67.0246449" id="Fill-36" fill="#C352FF"></path>
                <path d="M95.2373349,44.2925498 C95.2434167,44.1667292 95.2434167,44.0407676 95.2373349,43.914947 L95.2373349,43.7408858 L95.224592,43.7408858 C95.1410393,42.8437795 94.7471685,41.9688188 94.0421108,41.2820247 L53.0507321,1.35247237 C51.4509216,-0.205897179 48.8570218,-0.205897179 47.2572113,1.35247237 L32.6227393,15.6078581 C31.8581666,16.3526256 31.4599517,17.3187075 31.426212,18.2943812 L31.4128899,18.2943812 L31.4128899,23.3650065 L31.4428646,23.3650065 C31.5449525,24.2281186 31.9347687,25.0651357 32.6144854,25.7272453 L73.6058641,65.6567976 C75.2056746,67.2151672 77.7994296,67.2151672 79.3992401,65.6567976 L94.0338569,51.4014119 C94.7638211,50.6902153 95.1595744,49.777593 95.2234336,48.8471979 L95.2373349,48.8471979 L95.2373349,44.2925498 Z" id="Fill-38" fill="#29235C"></path>
                <path d="M82.6125741,49.5779587 C82.6125741,50.7530833 83.5904452,51.705624 84.7968193,51.705624 C86.0030486,51.705624 86.9810646,50.7530833 86.9810646,49.5779587 C86.9810646,48.4028341 86.0030486,47.4502934 84.7968193,47.4502934 C83.5904452,47.4502934 82.6125741,48.4028341 82.6125741,49.5779587" id="Fill-40" fill="#EDEDED"></path>
                <path d="M42.9471933,10.3443267 C42.9471933,10.8612913 43.3774103,11.2805051 43.908267,11.2805051 C44.4389789,11.2805051 44.8693407,10.8612913 44.8693407,10.3443267 C44.8693407,9.82736218 44.4389789,9.40814836 43.908267,9.40814836 C43.3774103,9.40814836 42.9471933,9.82736218 42.9471933,10.3443267" id="Fill-42" fill="#29235C"></path>
                <polygon id="Fill-44" fill="#FFFFFF" points="72.1518727 55.5975137 88.2884115 39.8789702 54.4256598 6.89324628 38.2889761 22.6117898"></polygon>
                <path d="M69.3130055,36.5408179 C66.2993147,39.4764431 61.4131448,39.4764431 58.399454,36.5408179 C55.3856185,33.6051927 55.3857633,28.8454514 58.399454,25.9099673 C61.4131448,22.9743421 66.2993147,22.9743421 69.3130055,25.9099673 C72.3266963,28.8455924 72.3266963,33.6051927 69.3130055,36.5408179 L69.3130055,36.5408179 Z M70.6791,24.5937882 C66.919082,20.9311684 60.8230627,20.9311684 57.0630446,24.5936471 C53.3030266,28.256267 53.3030266,34.1945182 57.0630446,37.857138 C60.8230627,41.5196168 66.9192268,41.5196168 70.6792448,37.857138 C74.439118,34.1945182 74.439118,28.256267 70.6791,24.5937882 L70.6791,24.5937882 Z M67.3183106,30.2077553 C67.1236921,30.3973324 66.8546436,30.5144076 66.5799477,30.5032643 C66.087754,30.492121 65.6986618,30.1575399 65.3551833,29.8230998 C65.0118496,29.4886597 64.6685159,29.1095053 64.6570762,28.6300612 C64.6456366,28.362481 64.7658251,28.1005428 64.9602988,27.9109657 C65.1549173,27.7213885 65.4239658,27.6043133 65.6986618,27.6154566 C66.1907106,27.6265999 66.5799477,27.96104 66.9234262,28.2956211 C67.2667599,28.6300612 67.6100936,29.0092156 67.6215332,29.4886597 C67.6329728,29.75624 67.5127843,30.0181781 67.3183106,30.2077553 L67.3183106,30.2077553 Z M64.5539748,27.5151669 C63.7149721,28.3324364 63.7957735,29.4748363 64.7543855,30.4084757 C65.7185001,31.3476163 66.8935962,31.4130655 67.7246347,30.603554 C68.5636374,29.7862846 68.4828359,28.6438846 67.5242239,27.7102452 C66.5601093,26.7711047 65.3850132,26.7056554 64.5539748,27.5151669 L64.5539748,27.5151669 Z M60.7009917,28.7261193 L65.1078556,33.0186883 L65.6516,32.4891699 L61.2447361,28.1964599 L60.7009917,28.7261193 Z M60.5642953,33.5311391 C60.2476058,33.222653 59.9507547,32.7907443 60.5069524,32.2489542 C61.0152195,31.7538531 61.4353001,31.9156425 61.829026,32.2990285 C62.2084163,32.6685912 62.4138952,33.067211 61.8805768,33.5868556 C61.3663727,34.08774 60.9586005,33.9152304 60.5642953,33.5311391 L60.5642953,33.5311391 Z M63.4829938,33.9882966 L62.8477323,34.406382 C62.4679076,34.6530862 62.16845,34.8374444 61.9550068,34.6293891 C61.8798527,34.5561818 61.8442306,34.4447488 61.8462579,34.3278146 C62.009164,34.2348598 62.1588928,34.1184898 62.2925482,33.9882966 C63.1678971,33.1356224 62.9349052,32.2167938 62.4241764,31.7192947 C62.1306558,31.4333774 61.7312824,31.2689079 61.3143875,31.2776533 C61.3762194,31.0735475 61.5095852,30.8819955 61.6745186,30.7214756 L61.2624024,30.3200346 C60.9804662,30.5948087 60.8705588,30.9690261 60.8830121,31.3535405 C60.5890571,31.4511502 60.3259456,31.6336747 60.1006283,31.8531554 C59.1708326,32.758725 59.5183657,33.6830548 59.9633528,34.1165151 C60.3158092,34.4599827 60.853327,34.6425071 61.3938857,34.5104802 C61.3773779,34.7559149 61.4558624,34.997118 61.6333939,35.1699097 C62.1105278,35.6348252 62.7405763,35.2363464 63.1282204,34.9806146 L63.7691293,34.5568871 C63.8809191,34.4831156 64.2640743,34.1915561 64.496487,34.4179484 C64.7371537,34.6523809 64.4529006,35.0170067 64.095376,35.3652701 C63.6603804,35.7889977 63.1109886,36.2014409 62.5042538,36.536022 L62.9793604,36.9986806 C63.5025425,36.7047232 63.9592588,36.302718 64.225556,36.0434599 C64.976517,35.3118105 65.5854239,34.4306433 64.9938937,33.8544359 C64.4869299,33.3606043 63.8855529,33.7242427 63.4829938,33.9882966 L63.4829938,33.9882966 Z" id="Fill-46" fill="#EF4230"></path>
                <path d="M83.399722,40.3717439 C82.4854204,40.3717439 81.5738702,40.0137477 80.9050139,39.307347 C79.6350702,37.9657781 79.7220983,35.8753512 81.0993428,34.6383037 L86.2150293,30.043314 C87.592129,28.8059844 89.7381456,28.8907581 91.0083789,30.2326091 C92.2783226,31.5741779 92.1914394,33.6646048 90.81405,34.9016524 L85.6983635,39.4966421 C85.0463046,40.0823001 84.2219273,40.3717439 83.399722,40.3717439" id="Fill-48" fill="#C352FF"></path>
                <path d="M76.8520834,35.7767259 C75.9554482,35.7767259 75.0605506,35.4326941 74.3937215,34.7498496 C73.1024914,33.4276052 73.1562142,31.3361908 74.5136204,30.0784083 L82.5729119,22.6107037 C83.9304629,21.3529212 86.0774931,21.4053934 87.3685784,22.7274968 C88.6598085,24.0497412 88.6062305,26.1411555 87.2488243,27.398938 L79.1895328,34.8666426 C78.532985,35.4748694 77.6916654,35.7767259 76.8520834,35.7767259" id="Fill-50" fill="#C352FF"></path>
                <path d="M70.5616773,30.7982938 C69.6714134,30.7982938 68.7824529,30.4590579 68.1164926,29.7846765 C66.8178775,28.4694849 66.8595814,26.3777884 68.2097474,25.1126711 L76.0673248,17.750052 C77.4174908,16.4847936 79.5649554,16.5256994 80.8637154,17.84075 C82.1623306,19.1559417 82.1206266,21.2477792 80.7704607,22.5128965 L72.9127384,29.8755156 C72.2548873,30.4919235 71.4076307,30.7982938 70.5616773,30.7982938" id="Fill-52" fill="#C352FF"></path>
                <path d="M72.8506603,24.8489839 C73.4921484,25.6443899 73.3819514,26.7932784 72.6476431,27.5085655 L71.8711963,28.2648995 C71.4883307,28.6378475 70.8676946,28.6378475 70.484829,28.2648995 L68.9928986,26.8116155 C68.610033,26.4386675 68.610033,25.8339671 68.9928986,25.4611602 L69.8072844,24.6677289 C70.6567131,23.8403035 72.0860876,23.9008159 72.8506603,24.8489839" id="Fill-54" fill="#FFFFFF"></path>
                <path d="M79.2285724,29.870212 C79.8700605,30.665618 79.7598635,31.8145065 79.0255551,32.5297936 L78.2491084,33.2861275 C77.8662428,33.6590755 77.2454619,33.6590755 76.8627411,33.2861275 L75.3708107,31.8328436 C74.9879451,31.4598956 74.9879451,30.8551952 75.3708107,30.4823883 L76.1851965,29.688957 C77.0346252,28.8615316 78.4639997,28.922044 79.2285724,29.870212" id="Fill-56" fill="#FFFFFF"></path>
                <path d="M85.5191089,34.5510051 C86.1605969,35.3464111 86.0504,36.4952996 85.3160916,37.2105867 L84.5396449,37.9669207 C84.1567793,38.3398687 83.5361432,38.3398687 83.1532776,37.9669207 L81.6613472,36.5136367 C81.2784816,36.1406887 81.2784816,35.5359883 81.6613472,35.1631814 L82.475733,34.3697501 C83.3251617,33.5423247 84.7545361,33.6028371 85.5191089,34.5510051" id="Fill-58" fill="#FFFFFF"></path>
                <path d="M62.2801819,83.5306672 L63.9503678,80.55597 C64.4088218,79.7394058 65.6127342,79.7394058 66.0710434,80.55597 L67.7412294,83.5306672 C67.8521503,83.7281435 68.0189662,83.8906382 68.2216938,83.9986859 L71.2754957,85.6256079 C72.1137744,86.0721863 72.1137744,87.2447719 71.2754957,87.6913503 L68.2216938,89.3182723 C68.0189662,89.42632 67.8521503,89.5888148 67.7412294,89.786291 L66.0710434,92.7609883 C65.6127342,93.5775525 64.4088218,93.5775525 63.9503678,92.7609883 L62.2801819,89.786291 C62.1692609,89.5888148 62.0025898,89.42632 61.7997174,89.3182723 L58.7459155,87.6913503 C57.9077817,87.2447719 57.9077817,86.0721863 58.7459155,85.6256079 L61.7997174,83.9986859 C62.0025898,83.8906382 62.1692609,83.7281435 62.2801819,83.5306672" id="Fill-60" fill="#FFDE00"></path>
                <path d="M19.8598631,22.7384849 L20.9415598,20.8121043 C21.2384109,20.2832912 22.0180434,20.2832912 22.3148945,20.8121043 L23.3965912,22.7384849 C23.4684147,22.8664213 23.5762947,22.9716479 23.7076332,23.0416109 L25.6853859,24.0951466 C26.2282615,24.3843082 26.2282615,25.1437454 25.6853859,25.4330481 L23.7076332,26.4865837 C23.5762947,26.5565467 23.4684147,26.6617734 23.3965912,26.7897098 L22.3148945,28.7160904 C22.0180434,29.2449035 21.2384109,29.2449035 20.9415598,28.7160904 L19.8598631,26.7897098 C19.7880396,26.6617734 19.6800148,26.5565467 19.5486762,26.4865837 L17.5710684,25.4330481 C17.0281928,25.1437454 17.0281928,24.3843082 17.5710684,24.0951466 L19.5486762,23.0416109 C19.6800148,22.9716479 19.7880396,22.8664213 19.8598631,22.7384849" id="Fill-62" fill="#FFDE00"></path>
                <g id="Group-66" transform="translate(96.006006, 20.319034)" fill="#FFDE00">
                    <path d="M2.8347547,2.41945054 L3.91645133,0.493069931 C4.21330247,-0.0357431973 4.99293495,-0.0357431973 5.2897861,0.493069931 L6.37148273,2.41945054 C6.44330622,2.54738692 6.55118628,2.65261354 6.68252481,2.72257655 L8.66027748,3.77611222 C9.20315307,4.06527384 9.20315307,4.824711 8.66027748,5.11401367 L6.68252481,6.16754935 C6.55118628,6.23751235 6.44330622,6.34273897 6.37148273,6.47067536 L5.2897861,8.39705596 C4.99293495,8.92586909 4.21330247,8.92586909 3.91645133,8.39705596 L2.8347547,6.47067536 C2.7629312,6.34273897 2.65490635,6.23751235 2.52356781,6.16754935 L0.545959944,5.11401367 C0.00308435584,4.824711 0.00308435584,4.06527384 0.545959944,3.77611222 L2.52356781,2.72257655 C2.65490635,2.65261354 2.7629312,2.54738692 2.8347547,2.41945054" id="Fill-64"></path>
                </g>
                <path d="M90.0689681,78.8178265 C90.0689681,79.9863216 89.0964548,80.9336433 87.8968866,80.9336433 C86.6973183,80.9336433 85.724805,79.9863216 85.724805,78.8178265 C85.724805,77.6493315 86.6973183,76.7020098 87.8968866,76.7020098 C89.0964548,76.7020098 90.0689681,77.6493315 90.0689681,78.8178265" id="Fill-67" fill="#FFDE00"></path>
                <path d="M4.34416315,56.9543729 C4.34416315,58.1228679 3.37164982,59.0701896 2.17208157,59.0701896 C0.972513324,59.0701896 0,58.1228679 0,56.9543729 C0,55.7858778 0.972513324,54.8385561 2.17208157,54.8385561 C3.37164982,54.8385561 4.34416315,55.7858778 4.34416315,56.9543729" id="Fill-69" fill="#FFDE00"></path>
            </g>
        </g>
    </g>
</svg>